<svg width="256" version="1.1" id="Layer_1" xmlns="http://www.w3.org/2000/svg" xmlns:xlink="http://www.w3.org/1999/xlink" x="0px" y="0px" viewBox="0 0 492.4 205" style="enable-background:new 0 0 492.4 205;" xml:space="preserve">
                <style type="text/css">
                    .st0 {
                        fill: currentColor
                    }

                    .st1 {
                        fill: #AA182C
                    }
                </style>
                <g>
                    <g fill="currentColor">
                        <path d="M13.5,183.4c-1.2-0.4-2.4-0.6-3.4-0.6c-1.5,0-2.6,0.3-3.5,0.8c-0.9,0.6-1.3,1.3-1.3,2.3c0,0.9,0.3,1.6,0.8,2.2
            c0.5,0.6,1.2,1,1.9,1.3c0.8,0.3,1.8,0.7,3.2,1.1c1.7,0.5,3.1,1,4.1,1.5c1,0.5,1.9,1.2,2.7,2.1c0.7,0.9,1.1,2.2,1.1,3.7
            c0,1.4-0.4,2.7-1.2,3.7c-0.8,1.1-1.9,1.9-3.2,2.5c-1.4,0.6-3,0.9-4.8,0.9c-1.8,0-3.6-0.4-5.4-1.1c-1.7-0.7-3.2-1.7-4.5-2.9l1.5-3
            c1.2,1.2,2.5,2.1,4,2.7c1.5,0.6,2.9,0.9,4.3,0.9c1.7,0,3-0.3,3.9-1c1-0.7,1.4-1.5,1.4-2.7c0-0.9-0.3-1.6-0.8-2.2
            c-0.5-0.6-1.2-1-2-1.4c-0.8-0.3-1.9-0.7-3.2-1.1c-1.7-0.5-3-1-4.1-1.5c-1-0.5-1.9-1.2-2.7-2.1c-0.7-0.9-1.1-2.2-1.1-3.7
            c0-1.3,0.4-2.5,1.1-3.5c0.7-1,1.8-1.8,3.1-2.4c1.3-0.5,2.9-0.8,4.6-0.8c1.5,0,3,0.2,4.4,0.7c1.4,0.4,2.7,1,3.8,1.8l-1.4,3.1
            C16,184.3,14.8,183.7,13.5,183.4z" />
                        <path d="M43.1,204.8l-2.6-6.1H27.3l-2.6,6.1h-3.6l11.1-25h3.6l11.1,25H43.1z M28.6,195.6h10.5l-5.3-12.1L28.6,195.6z" />
                        <path d="M68.2,179.8h3.4v25h-3.5l-14.3-19.3v19.3h-3.4v-25h3.5l14.3,19.4V179.8z" />
                        <path d="M75.6,179.8h19.5v3.1H87v21.8h-3.4V183h-8V179.8z" />
                        <path d="M115.1,204.8l-5-7.9c-0.6,0-1,0.1-1.4,0.1h-6.4v7.8H99v-25h9.8c3.2,0,5.6,0.7,7.3,2.2c1.7,1.5,2.6,3.5,2.6,6.2
            c0,2-0.5,3.7-1.4,5.1c-0.9,1.4-2.3,2.4-4.1,3l5.8,8.5H115.1z M108.8,193.9c2.1,0,3.8-0.5,4.9-1.4c1.1-0.9,1.7-2.3,1.7-4.2
            c0-1.8-0.6-3.1-1.7-4.1c-1.1-0.9-2.8-1.4-4.9-1.4h-6.4v11H108.8z" />
                        <path d="M128,173.9c0.4,0.4,0.6,0.9,0.6,1.5c0,0.6-0.2,1.1-0.6,1.5c-0.4,0.4-0.9,0.6-1.5,0.6c-0.6,0-1.1-0.2-1.5-0.6
            c-0.4-0.4-0.6-0.9-0.6-1.5c0-0.6,0.2-1.1,0.6-1.5c0.4-0.4,0.9-0.6,1.5-0.6C127.1,173.3,127.6,173.5,128,173.9z M124.8,179.8h3.4
            v25h-3.4V179.8z" />
                        <path d="M135.4,179.8h16.3l0,3.1h-12.8v8.2h11.5v3.1h-11.5v10.6h-3.4V179.8z" />
                        <path d="M160.4,200c1.3,1.3,3,1.9,5.3,1.9c2.2,0,3.9-0.6,5.2-1.9c1.3-1.3,1.9-3.1,1.9-5.4v-14.8h3.4v14.8c0,3.3-0.9,5.8-2.8,7.7
            c-1.9,1.9-4.4,2.8-7.7,2.8c-3.3,0-5.9-0.9-7.8-2.8c-1.9-1.9-2.8-4.4-2.8-7.7v-14.8h3.4v14.8C158.5,196.9,159.2,198.7,160.4,200z
             M164,174.2c0.4,0.4,0.5,0.8,0.5,1.4c0,0.5-0.2,1-0.5,1.4c-0.4,0.4-0.8,0.6-1.3,0.6c-0.5,0-1-0.2-1.3-0.6
            c-0.4-0.4-0.6-0.8-0.6-1.4c0-0.6,0.2-1,0.5-1.4c0.4-0.4,0.8-0.5,1.4-0.5C163.2,173.7,163.6,173.9,164,174.2z M170.2,174.2
            c0.4,0.4,0.5,0.8,0.5,1.4c0,0.5-0.2,1-0.6,1.4c-0.4,0.4-0.8,0.6-1.3,0.6c-0.5,0-1-0.2-1.3-0.6c-0.4-0.4-0.6-0.8-0.6-1.4
            c0-0.6,0.2-1,0.5-1.4c0.4-0.4,0.8-0.5,1.4-0.5C169.4,173.7,169.8,173.9,170.2,174.2z" />
                        <path d="M191.8,202.9c-1.3,1.3-3.1,2-5.5,2c-1.4,0-2.7-0.3-3.9-0.9c-1.2-0.6-2.3-1.5-3.2-2.6l1.7-2.6c0.8,0.9,1.6,1.6,2.6,2.1
            c0.9,0.5,1.9,0.7,2.8,0.7c1.3,0,2.3-0.4,3-1.2c0.7-0.8,1-1.9,1-3.3V183h-8.8v-3.1h12.3v17.4C193.8,199.7,193.1,201.6,191.8,202.9z
            " />
                        <path d="M215.8,179.8h19.5v3.1h-8.1v21.8h-3.4V183h-8V179.8z" />
                        <path d="M239.3,179.8h17.3v3.1h-13.9v7.7h12.5v3.1h-12.5v8H257v3.1h-17.8V179.8z" />
                        <path d="M283.5,204.8h-4.1l-8.8-11.5l-4.6,5v6.5h-3.4v-25h3.4v14l12.8-14h4.1l-9.9,10.8L283.5,204.8z" />
                        <path d="M305.6,179.8h3.4v25h-3.5l-14.3-19.3v19.3h-3.4v-25h3.5l14.3,19.4V179.8z" />
                        <path d="M333.7,181.3c2,1.1,3.6,2.6,4.8,4.6c1.2,1.9,1.7,4.1,1.7,6.4s-0.6,4.5-1.7,6.4c-1.2,2-2.8,3.5-4.8,4.6
            c-2,1.1-4.2,1.7-6.6,1.7c-2.4,0-4.6-0.6-6.6-1.7c-2-1.1-3.6-2.7-4.8-4.6c-1.2-2-1.7-4.1-1.7-6.4s0.6-4.5,1.7-6.4
            c1.2-1.9,2.7-3.5,4.7-4.6c2-1.1,4.2-1.7,6.6-1.7C329.5,179.6,331.7,180.2,333.7,181.3z M322.3,184c-1.5,0.9-2.7,2-3.6,3.5
            c-0.9,1.5-1.3,3.1-1.3,4.8s0.4,3.4,1.3,4.9c0.9,1.5,2.1,2.6,3.6,3.5c1.5,0.9,3.1,1.3,4.8,1.3c1.7,0,3.3-0.4,4.8-1.3
            c1.5-0.9,2.6-2,3.5-3.5c0.9-1.5,1.3-3.1,1.3-4.9s-0.4-3.4-1.3-4.8c-0.9-1.5-2-2.6-3.5-3.5c-1.5-0.9-3.1-1.3-4.8-1.3
            C325.4,182.7,323.7,183.1,322.3,184z" />
                        <path d="M345.1,179.8h3.4v21.9h10.9v3.1h-14.3V179.8z" />
                        <path d="M381.4,181.3c2,1.1,3.6,2.6,4.8,4.6c1.2,1.9,1.7,4.1,1.7,6.4s-0.6,4.5-1.7,6.4c-1.2,2-2.8,3.5-4.8,4.6
            c-2,1.1-4.2,1.7-6.6,1.7s-4.6-0.6-6.6-1.7c-2-1.1-3.6-2.7-4.8-4.6c-1.2-2-1.7-4.1-1.7-6.4s0.6-4.5,1.7-6.4
            c1.2-1.9,2.7-3.5,4.7-4.6c2-1.1,4.2-1.7,6.6-1.7C377.1,179.6,379.3,180.2,381.4,181.3z M369.9,184c-1.5,0.9-2.7,2-3.6,3.5
            c-0.9,1.5-1.3,3.1-1.3,4.8s0.4,3.4,1.3,4.9c0.9,1.5,2.1,2.6,3.6,3.5c1.5,0.9,3.1,1.3,4.8,1.3c1.7,0,3.3-0.4,4.8-1.3
            c1.5-0.9,2.6-2,3.5-3.5c0.9-1.5,1.3-3.1,1.3-4.9s-0.4-3.4-1.3-4.8c-0.9-1.5-2-2.6-3.5-3.5c-1.5-0.9-3.1-1.3-4.8-1.3
            C373,182.7,371.4,183.1,369.9,184z" />
                        <path d="M401.8,202.9c-1.3,1.3-3.1,2-5.5,2c-1.4,0-2.7-0.3-3.9-0.9c-1.2-0.6-2.3-1.5-3.2-2.6l1.7-2.6c0.8,0.9,1.6,1.6,2.6,2.1
            c0.9,0.5,1.9,0.7,2.8,0.7c1.3,0,2.3-0.4,3-1.2c0.7-0.8,1-1.9,1-3.3V183h-8.8v-3.1h12.3v17.4C403.7,199.7,403.1,201.6,401.8,202.9z
            " />
                        <path d="M413.5,173.9c0.4,0.4,0.6,0.9,0.6,1.5c0,0.6-0.2,1.1-0.6,1.5c-0.4,0.4-0.9,0.6-1.5,0.6c-0.6,0-1.1-0.2-1.5-0.6
            c-0.4-0.4-0.6-0.9-0.6-1.5c0-0.6,0.2-1.1,0.6-1.5c0.4-0.4,0.9-0.6,1.5-0.6C412.6,173.3,413.1,173.5,413.5,173.9z M410.3,179.8h3.4
            v25h-3.4V179.8z" />
                        <path d="M420.8,179.8h3.4v21.9h10.9v3.1h-14.3V179.8z" />
                        <path d="M439.5,179.8h17.3v3.1H443v7.7h12.5v3.1H443v8h14.3v3.1h-17.8V179.8z" />
                        <path d="M479,204.8l-5-7.9c-0.6,0-1,0.1-1.4,0.1h-6.4v7.8h-3.4v-25h9.8c3.2,0,5.6,0.7,7.3,2.2c1.7,1.5,2.6,3.5,2.6,6.2
            c0,2-0.5,3.7-1.4,5.1c-0.9,1.4-2.3,2.4-4.1,3l5.8,8.5H479z M472.6,193.9c2.1,0,3.8-0.5,4.9-1.4c1.1-0.9,1.7-2.3,1.7-4.2
            c0-1.8-0.6-3.1-1.7-4.1c-1.1-0.9-2.8-1.4-4.9-1.4h-6.4v11H472.6z" />
                        <path d="M491.8,173.9c0.4,0.4,0.6,0.9,0.6,1.5c0,0.6-0.2,1.1-0.6,1.5c-0.4,0.4-0.9,0.6-1.5,0.6c-0.6,0-1.1-0.2-1.5-0.6
            c-0.4-0.4-0.6-0.9-0.6-1.5c0-0.6,0.2-1.1,0.6-1.5c0.4-0.4,0.9-0.6,1.5-0.6C490.9,173.3,491.4,173.5,491.8,173.9z M488.7,179.8h3.4
            v25h-3.4V179.8z" />
                    </g>
                    <polygon class="st0" points="0,143.2 0,3.8 35.7,3.8 35.7,53.3 84.2,53.3 84.2,3.8 119.9,3.8 119.9,143.2 84.2,143.2 84.2,84.4 
        35.7,84.4 35.7,143.2 	" />
                    <path class="st0" d="M174.7,3.8h38.8l48.9,139.4h-38.1l-8.4-25.6h-46.3l-7.9,25.6h-36.8L174.7,3.8z M178,88.8h30.3l-15.5-48
        L178,88.8z" />
                    <path class="st1" d="M253.8,3.8h34.9v87c0,9.6,1.8,16.4,5.4,20.5c3.6,4.1,9.6,6.1,17.9,6.1c8.2,0,14.1-2,17.7-6.1
        c3.6-4.1,5.4-10.9,5.4-20.5v-87h35.3v82.8c0,11.6-1.1,21-3.4,27.9c-2.3,6.9-6,12.8-11.2,17.6c-5.5,5-11.8,8.8-19.1,11.2
        c-7.3,2.5-15.4,3.7-24.5,3.7c-9.1,0-17.3-1.3-24.5-3.7c-7.2-2.5-13.6-6.2-19.1-11.2c-5.2-4.8-9-10.8-11.4-17.7
        c-2.3-7-3.4-16.3-3.4-27.8V3.8z" />
                    <path class="st1" d="M375.3,96.9h34.1c0.2,7.9,2.6,13.9,6.9,17.9c4.4,4,10.9,6,19.3,6c7.2,0,12.8-1.2,16.7-3.6c4-2.4,6-5.7,6-10.1
        c0-2.2-0.5-4.2-1.4-5.9c-0.9-1.7-2.3-3-4-3.9c-2.6-1.4-8.8-3.6-18.9-6.5c-10.1-3-18.5-5.8-25.4-8.6c-9.9-4-17.6-9.2-22.7-15.7
        c-5.2-6.5-7.8-14.1-7.8-22.9c0-13.3,4.9-23.9,14.9-31.7C403,3.9,416.4,0,433.4,0c16.7,0,30,4.2,39.7,12.4
        c9.8,8.3,14.7,19.4,14.7,33.5h-33.5c-0.7-6.5-2.9-11.2-6.8-14.4c-3.8-3.1-9.3-4.7-16.4-4.7c-5.8,0-10.4,1.2-13.9,3.6
        c-3.6,2.4-5.4,5.4-5.4,9c0,6.2,8.5,12,25.5,17.5c3.1,1,5.4,1.7,7.1,2.3l1.4,0.4c17.6,5.7,28.5,10.4,32.9,13.9
        c4.5,3.6,7.8,7.9,10.2,12.9c2.4,4.9,3.5,10.4,3.5,16.5c0,13.9-5.2,24.7-15.8,32.4c-10.6,7.7-25.4,11.6-44.5,11.6
        c-18,0-31.7-4.2-41.2-12.4C381.5,126.3,376.3,113.7,375.3,96.9" />
                </g>
            </svg>